<svg xmlns="http://www.w3.org/2000/svg" xmlns:xlink="http://www.w3.org/1999/xlink" width="150" zoomAndPan="magnify" viewBox="0 0 112.5 112.499997" height="150" preserveAspectRatio="xMidYMid meet" version="1.0"><defs><clipPath id="8a46d771fa"><path d="M 0 11 L 112.003906 11 L 112.003906 112.003906 L 0 112.003906 Z M 0 11 " clip-rule="nonzero"/></clipPath></defs><path fill="#f4b400" d="M 54.835938 7.371094 C 54.835938 3.304688 51.527344 0 47.464844 0 L 11.667969 0 L 11.667969 91 L 54.835938 91 Z M 44.335938 81.667969 L 22.167969 81.667969 C 21.523438 81.667969 21 81.144531 21 80.5 C 21 79.855469 21.523438 79.335938 22.167969 79.335938 L 44.335938 79.335938 C 44.980469 79.335938 45.5 79.855469 45.5 80.5 C 45.5 81.144531 44.980469 81.667969 44.335938 81.667969 Z M 44.335938 70 L 22.167969 70 C 21.523438 70 21 69.480469 21 68.835938 C 21 68.191406 21.523438 67.667969 22.167969 67.667969 L 44.335938 67.667969 C 44.980469 67.667969 45.5 68.191406 45.5 68.835938 C 45.5 69.480469 44.980469 70 44.335938 70 Z M 44.335938 58.335938 L 22.167969 58.335938 C 21.523438 58.335938 21 57.8125 21 57.167969 C 21 56.523438 21.523438 56 22.167969 56 L 44.335938 56 C 44.980469 56 45.5 56.523438 45.5 57.167969 C 45.5 57.8125 44.980469 58.335938 44.335938 58.335938 Z M 44.335938 46.667969 L 22.167969 46.667969 C 21.523438 46.667969 21 46.144531 21 45.5 C 21 44.855469 21.523438 44.335938 22.167969 44.335938 L 44.335938 44.335938 C 44.980469 44.335938 45.5 44.855469 45.5 45.5 C 45.5 46.144531 44.980469 46.667969 44.335938 46.667969 Z M 44.335938 35 L 22.167969 35 C 21.523438 35 21 34.476562 21 33.832031 C 21 33.1875 21.523438 32.667969 22.167969 32.667969 L 44.335938 32.667969 C 44.980469 32.667969 45.5 33.1875 45.5 33.832031 C 45.5 34.476562 44.980469 35 44.335938 35 Z M 44.335938 23.332031 L 22.167969 23.332031 C 21.523438 23.332031 21 22.8125 21 22.167969 C 21 21.523438 21.523438 21 22.167969 21 L 44.335938 21 C 44.980469 21 45.5 21.523438 45.5 22.167969 C 45.5 22.8125 44.980469 23.332031 44.335938 23.332031 Z M 44.335938 11.667969 L 22.167969 11.667969 C 21.523438 11.667969 21 11.144531 21 10.5 C 21 9.855469 21.523438 9.332031 22.167969 9.332031 L 44.335938 9.332031 C 44.980469 9.332031 45.5 9.855469 45.5 10.5 C 45.5 11.144531 44.980469 11.667969 44.335938 11.667969 Z M 44.335938 11.667969 " fill-opacity="1" fill-rule="nonzero"/><path fill="#f4b400" d="M 100.335938 0 L 64.539062 0 C 60.472656 0 57.167969 3.304688 57.167969 7.371094 L 57.167969 91 L 100.335938 91 Z M 89.835938 81.667969 L 67.667969 81.667969 C 67.023438 81.667969 66.5 81.144531 66.5 80.5 C 66.5 79.855469 67.023438 79.335938 67.667969 79.335938 L 89.835938 79.335938 C 90.480469 79.335938 91.003906 79.855469 91.003906 80.5 C 91.003906 81.144531 90.480469 81.667969 89.835938 81.667969 Z M 89.835938 70 L 67.667969 70 C 67.023438 70 66.5 69.480469 66.5 68.835938 C 66.5 68.191406 67.023438 67.667969 67.667969 67.667969 L 89.835938 67.667969 C 90.480469 67.667969 91.003906 68.191406 91.003906 68.835938 C 91.003906 69.480469 90.480469 70 89.835938 70 Z M 89.835938 58.335938 L 67.667969 58.335938 C 67.023438 58.335938 66.5 57.8125 66.5 57.167969 C 66.5 56.523438 67.023438 56 67.667969 56 L 89.835938 56 C 90.480469 56 91.003906 56.523438 91.003906 57.167969 C 91.003906 57.8125 90.480469 58.335938 89.835938 58.335938 Z M 89.835938 46.667969 L 67.667969 46.667969 C 67.023438 46.667969 66.5 46.144531 66.5 45.5 C 66.5 44.855469 67.023438 44.335938 67.667969 44.335938 L 89.835938 44.335938 C 90.480469 44.335938 91.003906 44.855469 91.003906 45.5 C 91.003906 46.144531 90.480469 46.667969 89.835938 46.667969 Z M 89.835938 35 L 67.667969 35 C 67.023438 35 66.5 34.476562 66.5 33.832031 C 66.5 33.1875 67.023438 32.667969 67.667969 32.667969 L 89.835938 32.667969 C 90.480469 32.667969 91.003906 33.1875 91.003906 33.832031 C 91.003906 34.476562 90.480469 35 89.835938 35 Z M 89.835938 23.332031 L 67.667969 23.332031 C 67.023438 23.332031 66.5 22.8125 66.5 22.167969 C 66.5 21.523438 67.023438 21 67.667969 21 L 89.835938 21 C 90.480469 21 91.003906 21.523438 91.003906 22.167969 C 91.003906 22.8125 90.480469 23.332031 89.835938 23.332031 Z M 89.835938 11.667969 L 67.667969 11.667969 C 67.023438 11.667969 66.5 11.144531 66.5 10.5 C 66.5 9.855469 67.023438 9.332031 67.667969 9.332031 L 89.835938 9.332031 C 90.480469 9.332031 91.003906 9.855469 91.003906 10.5 C 91.003906 11.144531 90.480469 11.667969 89.835938 11.667969 Z M 89.835938 11.667969 " fill-opacity="1" fill-rule="nonzero"/><g clip-path="url(#8a46d771fa)"><path fill="#f4b400" d="M 102.667969 92.167969 C 102.667969 92.8125 102.144531 93.335938 101.5 93.335938 C 98.933594 93.335938 13.066406 93.335938 10.5 93.335938 C 9.855469 93.335938 9.332031 92.8125 9.332031 92.167969 L 9.332031 11.667969 L 0 11.667969 L 0 102.667969 C 51.335938 102.675781 48.046875 102.636719 48.339844 102.75 C 48.386719 102.769531 48.503906 102.832031 48.542969 102.851562 C 48.574219 102.875 48.601562 102.894531 48.628906 102.917969 C 48.714844 102.988281 48.722656 102.992188 48.792969 103.074219 C 48.863281 103.152344 48.867188 103.15625 48.921875 103.257812 C 48.976562 103.351562 48.980469 103.355469 49.015625 103.457031 C 49.050781 103.566406 49.050781 103.574219 49.066406 103.675781 C 49.074219 103.71875 49.078125 103.757812 49.078125 103.800781 C 49.078125 103.8125 49.082031 103.824219 49.082031 103.835938 C 49.082031 103.863281 49.078125 103.890625 49.074219 103.917969 C 49.074219 103.945312 49.074219 103.96875 49.070312 103.996094 C 48.46875 108.285156 51.796875 112.003906 56 112.003906 C 60.210938 112.003906 63.53125 108.28125 62.929688 103.996094 C 62.925781 103.96875 62.929688 103.945312 62.925781 103.917969 C 62.925781 103.890625 62.917969 103.863281 62.917969 103.835938 C 62.917969 103.824219 62.921875 103.8125 62.921875 103.800781 C 62.925781 103.757812 62.929688 103.71875 62.9375 103.675781 C 62.949219 103.578125 62.949219 103.566406 62.988281 103.457031 C 63.023438 103.355469 63.023438 103.351562 63.078125 103.257812 C 63.136719 103.15625 63.140625 103.152344 63.207031 103.074219 C 63.28125 102.992188 63.285156 102.988281 63.371094 102.917969 C 63.457031 102.851562 63.464844 102.847656 63.558594 102.800781 C 63.660156 102.746094 63.671875 102.746094 63.769531 102.71875 C 63.808594 102.707031 63.847656 102.695312 63.890625 102.6875 C 63.902344 102.6875 63.910156 102.683594 63.921875 102.679688 C 63.949219 102.675781 63.976562 102.679688 64.003906 102.675781 C 64.1875 102.664062 102.851562 102.667969 112.003906 102.667969 L 112.003906 11.667969 L 102.667969 11.667969 Z M 102.667969 92.167969 " fill-opacity="1" fill-rule="nonzero"/></g></svg>